<svg viewBox="0 0 800 800" width="100%" height="100%" xmlns="http://www.w3.org/2000/svg">
    <defs>
        <linearGradient id="bgGrad" x1="0%" y1="0%" x2="100%" y2="100%">
            <stop offset="0%" stop-color="#09090b" />
            <stop offset="100%" stop-color="#18181b" />
        </linearGradient>

        <pattern id="grid" width="40" height="40" patternUnits="userSpaceOnUse">
            <path d="M 40 0 L 0 0 0 40" fill="none" stroke="#ffffff" stroke-opacity="0.03" stroke-width="1"/>
        </pattern>
    </defs>

    <rect width="100%" height="100%" fill="url(#bgGrad)"/>
    <rect width="100%" height="100%" fill="url(#grid)"/>

    <g transform="rotate(45, 400, 400)">
        
        <path d="M 400,100 A 300,300 0 0,0 400,700" 
              fill="none" stroke="#00F0FF" stroke-width="120" stroke-linecap="round" />

        <path d="M 400,52 A 348,348 0 0,1 400,748" 
              fill="none" stroke="#00F0FF" stroke-width="24" stroke-linecap="round" />

        <path d="M 400,100 A 300,300 0 0,1 550,659.8" 
              fill="none" stroke="#00F0FF" stroke-width="24" stroke-linecap="round" />

        <path d="M 400,148 A 252,252 0 0,1 618.2,526" 
              fill="none" stroke="#00F0FF" stroke-width="24" stroke-linecap="round" />

        <circle cx="550" cy="659.8" r="26" fill="#00F0FF" />
        <circle cx="618.2" cy="526" r="26" fill="#00F0FF" />
    </g>
</svg>